<svg width="53" height="49" viewBox="0 0 53 49" fill="none" xmlns="http://www.w3.org/2000/svg">
<path d="M53 15.7165C53 15.0174 52.4837 14.4498 51.8477 14.4498C51.2117 14.4498 50.6954 15.0174 50.6954 15.7165V23.7981C46.5579 16.5172 37.2846 11.4427 26.5 11.4427C15.7154 11.4427 6.44206 16.5209 2.30465 23.7981V15.7165C2.30465 15.0174 1.78832 14.4498 1.15232 14.4498C0.516322 14.4498 0 15.0174 0 15.7165V31.9774C0 32.0074 0.00683871 32.0337 0.00683871 32.0638C0.00683871 32.1465 0 32.2254 0 32.3044C0 32.3683 0 32.4284 0 32.4923C0.164129 41.4347 11.9609 48.6554 26.4966 48.6554C41.0323 48.6554 52.829 41.4347 52.9932 32.4923C52.9932 32.4284 52.9932 32.3683 52.9932 32.3044C52.9932 32.2217 52.9863 32.1427 52.9863 32.0638C52.9863 32.0337 52.9932 32.0074 52.9932 31.9774V15.7165H53Z" fill="white"/>
<path d="M40.3285 24.9745H12.6715C8.94831 24.9745 5.93008 28.0037 5.93008 31.7404C5.93008 35.4772 8.94831 38.5064 12.6715 38.5064H40.3285C44.0517 38.5064 47.0699 35.4772 47.0699 31.7404C47.0699 28.0037 44.0517 24.9745 40.3285 24.9745Z" fill="#3B8600"/>
<path d="M12.972 34.2627C14.3025 34.2627 15.3811 33.1689 15.3811 31.8195C15.3811 30.4701 14.3025 29.3762 12.972 29.3762C11.6415 29.3762 10.5629 30.4701 10.5629 31.8195C10.5629 33.1689 11.6415 34.2627 12.972 34.2627Z" fill="white"/>
<path d="M40.028 34.2627C41.3585 34.2627 42.437 33.1689 42.437 31.8195C42.437 30.4701 41.3585 29.3762 40.028 29.3762C38.6975 29.3762 37.6189 30.4701 37.6189 31.8195C37.6189 33.1689 38.6975 34.2627 40.028 34.2627Z" fill="white"/>
<path d="M17.0378 0.166077C17.086 2.91381 17.9421 5.33451 19.673 7.0899C21.4038 8.84529 23.7907 9.70983 26.5 9.76245C26.4518 7.01473 25.5956 4.59402 23.8648 2.83863C22.134 1.08324 19.7508 0.214942 17.0378 0.166077Z" fill="white"/>
<path d="M35.9622 0.166077C35.914 2.91381 35.0578 5.33451 33.327 7.0899C31.5962 8.84529 29.2093 9.70983 26.5 9.76245C26.5482 7.01473 27.4043 4.59402 29.1352 2.83863C30.866 1.08324 33.2492 0.214942 35.9622 0.166077Z" fill="white"/>
</svg>
