<svg width="169" height="153" viewBox="0 0 169 153" fill="none" xmlns="http://www.w3.org/2000/svg">
<path d="M169 49.0009C169 46.7978 167.354 45.0093 165.326 45.0093C163.298 45.0093 161.651 46.7978 161.651 49.0009V74.4666C148.458 51.5238 118.889 35.5336 84.5 35.5336C50.1112 35.5336 20.5417 51.5356 7.34877 74.4666V49.0009C7.34877 46.7978 5.70239 45.0093 3.67439 45.0093C1.64639 45.0093 0 46.7978 0 49.0009V100.24C0 100.335 0.0218065 100.418 0.0218065 100.513C0.0218065 100.773 0 101.022 0 101.271C0 101.472 0 101.662 0 101.863C0.523355 130.041 38.1395 152.795 84.4891 152.795C130.839 152.795 168.455 130.041 168.978 101.863C168.978 101.662 168.978 101.472 168.978 101.271C168.978 101.01 168.956 100.762 168.956 100.513C168.956 100.418 168.978 100.335 168.978 100.24V49.0009H169Z" fill="#3B8600"/>
<path d="M128.595 78.174H40.4053C28.5333 78.174 18.9091 87.7194 18.9091 99.4942C18.9091 111.269 28.5333 120.814 40.4053 120.814H128.595C140.467 120.814 150.091 111.269 150.091 99.4942C150.091 87.7194 140.467 78.174 128.595 78.174Z" fill="#FCFFD7"/>
<path d="M41.3635 107.442C45.606 107.442 49.0453 103.995 49.0453 99.7428C49.0453 95.4908 45.606 92.0438 41.3635 92.0438C37.1209 92.0438 33.6817 95.4908 33.6817 99.7428C33.6817 103.995 37.1209 107.442 41.3635 107.442Z" fill="#54B435"/>
<path d="M127.636 107.442C131.879 107.442 135.318 103.995 135.318 99.7428C135.318 95.4908 131.879 92.0438 127.636 92.0438C123.394 92.0438 119.955 95.4908 119.955 99.7428C119.955 103.995 123.394 107.442 127.636 107.442Z" fill="#54B435"/>
<path d="M54.3282 0C54.4818 8.65836 57.2118 16.2862 62.7309 21.8176C68.25 27.349 75.8609 30.0733 84.5 30.2391C84.3463 21.5807 81.6163 13.9529 76.0972 8.42147C70.5782 2.89007 62.9791 0.153979 54.3282 0Z" fill="#54B435"/>
<path d="M114.672 -3.05176e-05C114.518 8.65833 111.788 16.2862 106.269 21.8176C100.75 27.349 93.1391 30.0733 84.5 30.2391C84.6536 21.5807 87.3836 13.9528 92.9027 8.42144C98.4218 2.89004 106.021 0.153948 114.672 -3.05176e-05Z" fill="#54B435"/>
</svg>
